# xmcd
#
# Track frame offsets:
# 150
# 17560
# 36140
# 61743
#
# Disc length: 1113 seconds
#
#
# Revision: 0
# Processed by: cddbd v1.5.1PL0 Copyright (c) Steve Scherf et al.
# Submitted via: FreeRIP 2.941 
#
DISCID=25045704
DTITLE=Boyz II Men - Singel
DYEAR=1994
DGENRE=Soul
TTITLE0=Pop edit
TTITLE1=LP Version
TTITLE2=Instrumental
TTITLE3=A Capella
EXTD=I´ll make love to you
EXTT0=
EXTT1=
EXTT2=
EXTT3=
PLAYORDER=
